# xmcd
#
# Track frame offsets:
#  150
#  13623
#  27903
#  39452
#  53105
#  64495
#  78358
#  89051
#  101728
#  114490
#  123956
#
# Disc length: 1822 seconds
#
# Revision: 0
# Processed by: cddbd v1.5.1PL0 Copyright (c) Steve Scherf et al.
# Submitted via: Collectorz.com Music Collector 6.9
#
DISCID=8f071c0b
DTITLE=Various Artist - Tumbling Tumbleweeds  (Record 6 of 7)
DYEAR=1900
DGENRE=Country
TTITLE0=Rogers, Roy - Along The Navajo Trail
TTITLE1=Rex Allen - The Trail of The Lonesome Pine
TTITLE2=The Sons Of The Pioneers - Along The Santa Fe Trail
TTITLE3=Roy Rogers and  Dale Evans - Happy Trails
TTITLE4=The Sons Of The Pioneers - Twilight on The Trail
TTITLE5=Jimmy Wakely - Blue Shadows on The Trail
TTITLE6=Al Caiola - Theme From Bonanza
TTITLE7=Hugo Montenegro and His Orchestra - The Good, The Bad and The Ugly
TTITLE8=Ritter, Tex - High Noon
TTITLE9=Al Caiola - Theme From The Magnificent Seven
TTITLE10=Warren Barker and His Orchestra - Theme From Gunsmoke
EXTD=
EXTT0=
EXTT1=
EXTT2=
EXTT3=
EXTT4=
EXTT5=
EXTT6=
EXTT7=
EXTT8=
EXTT9=
EXTT10=
PLAYORDER=
